<?xml version="1.0" encoding="utf-8"?>
<!-- Generator: Adobe Adobe Illustrator 24.2.0, SVG Export Plug-In . SVG Version: 6.00 Build 0)  -->
<svg version="1.1" id="Layer_1" xmlns="http://www.w3.org/2000/svg" xmlns:xlink="http://www.w3.org/1999/xlink" x="0px" y="0px"
	 width="522px" height="783.06px" viewBox="0 0 522 783.06" style="enable-background:new 0 0 522 783.06;" xml:space="preserve">
<style type="text/css">
	.st0{fill:#FFFFFF;}
</style>
<g>
	<rect x="0" class="st0" width="522" height="783.06"/>
	<rect x="7.6" y="8.07" width="506.92" height="766.94"/>
	<path class="st0" d="M386.87,750.48v-62.62h53.98c25.55,0,46.04,3.46,46.04,15.89c0,6.55-7.48,11.51-14.73,13.69
		c12.2,1.84,18.76,7.71,18.76,14.51c0,14.04-19.22,18.99-48.57,18.99L386.87,750.48z M423.93,724.13v11.51h16.11
		c9.21,0,16.11-1.03,16.11-5.75c0-4.72-8.63-4.72-20.49-4.72L423.93,724.13z M423.93,702.15v11.51h15.42
		c7.37,0,12.66-1.96,12.66-5.52c0-3.57-7.25-5.99-14.62-5.99H423.93z M297.78,728.96v21.98h-37.06v-63.08h53.41
		c37.64,0,49.96,5.75,49.96,18.07c0,7.25-5.76,13.35-18.88,15.43c11.51,2.41,19.11,3.91,19.11,16.69c0,8.17,0,11.51,3.91,11.51v1.84
		H330.7c-1.54-3.63-2.18-7.58-1.84-11.52c0-8.28-2.53-11.5-19.8-11.5L297.78,728.96z M297.78,715.27h14.62
		c11.51,0,17.5-1.73,17.5-5.99c0-4.26-6.22-7.14-14.85-7.14h-17.27V715.27z M204.08,706.29c-0.88-2.31-2.96-3.95-5.41-4.25
		c-3.11-0.88-6.32-1.31-9.55-1.26c-8.17,0-11.51,1.38-11.51,3.79c0,9.33,64.92,3.46,64.92,26.35c0,14.63-21.75,21.76-52.83,21.76
		c-31.08,0-49.26-9.68-50.07-21.07h35.45c1.22,2.46,3.44,4.27,6.1,4.96c3.43,1.04,7,1.54,10.59,1.5c9.21,0,15.42-1.61,15.42-4.6
		c0-9.56-65.03-3-65.03-27.05c0-13.35,20.72-20.15,48.92-20.15c31.42,0,46.04,8.98,48.46,20.03H204.08z M31.42,750.95v-63.08h92.2
		v14.73H68.49v9.1h46.62v14.62H68.49v10.01h57.32v14.61H31.42z M31.77,270.62h459.04v393.31H31.77V270.62z M31.54,32.12h459.04
		v214.9H31.54V32.12z"/>
	<path d="M450.75,167.13l-13.35,55.83h-11.51l14.5-58.36H422.2V153.9h28.55V167.13z M389.74,164.6c1.97-1.37,3.82-2.91,5.52-4.6
		c1.88-1.77,3.47-3.84,4.72-6.1h10.24v69.06h-11.51V169.9c-1.33,1.46-2.75,2.85-4.26,4.14l-4.72,3.56V164.6z M362.81,166.45h8.52
		v19.45h12.78v11.51h-12.78v18.99h-8.52v-19.45h-12.89v-11.51h12.89V166.45z M307.91,213.52c1.44,0.06,2.84-0.53,3.8-1.61
		c1.14-1.31,1.93-2.9,2.3-4.59c0.55-2.69,0.86-5.43,0.92-8.18v-23.02c-0.06-2.74-0.37-5.48-0.92-8.17c-0.33-1.72-1.13-3.31-2.3-4.6
		c-0.96-1.08-2.36-1.67-3.8-1.61c-1.47-0.03-2.89,0.56-3.91,1.61c-1.13,1.31-1.89,2.9-2.19,4.6c-0.59,2.69-0.94,5.41-1.04,8.17
		v23.02c0.1,2.75,0.45,5.49,1.04,8.18c0.33,1.68,1.09,3.27,2.19,4.59C305.02,212.97,306.43,213.56,307.91,213.52 M307.91,224.11
		c-7.59,0.72-14.59-4.14-16.58-11.5c-1.19-3.74-1.89-7.6-2.07-11.51v-27.4c0.19-3.91,0.88-7.79,2.07-11.51
		c1.04-3.22,3-6.07,5.64-8.18c3.18-2.26,7.04-3.36,10.93-3.11c3.89-0.22,7.75,0.87,10.94,3.11c2.61,2.15,4.56,4.98,5.64,8.18
		c1.19,3.72,1.89,7.6,2.07,11.51v27.4c-0.19,3.91-0.88,7.77-2.07,11.51c-1.05,3.25-3.01,6.12-5.64,8.28
		C315.67,223.17,311.81,224.31,307.91,224.11 M258.41,182.45h5.06c1.05,0.02,2.08-0.35,2.88-1.03c0.84-0.66,1.47-1.53,1.84-2.53
		c0.52-1.04,0.83-2.18,0.92-3.34c0.11-1.18,0.11-2.38,0-3.57c0.23-2.5-0.29-5.03-1.5-7.25c-0.99-1.42-2.64-2.25-4.37-2.18h-5.06
		L258.41,182.45z M258.41,222.96H246.9V151.6h21.29c3.68-0.01,7.15,1.74,9.32,4.72c2.65,4.14,3.9,9.02,3.57,13.92
		c0.11,3.98-0.72,7.92-2.42,11.52c-1.51,3.1-4.42,5.29-7.83,5.87l2.53,0.57c1.25,0.32,2.4,0.95,3.34,1.84
		c1.27,1.09,2.26,2.47,2.88,4.03c0.92,2.42,1.35,5.01,1.27,7.6v17.96c0.12,1.29,0.35,2.55,0.69,3.8h-11.51
		c-0.78-2.18-1.17-4.47-1.15-6.8v-13.12c0.06-1.68-0.21-3.36-0.81-4.96c-0.45-1.35-1.29-2.56-2.42-3.44
		c-1.48-0.92-3.21-1.37-4.95-1.26h-2.99L258.41,222.96z M237.81,151.6v50.65c-0.03,2.67-0.34,5.34-0.92,7.95
		c-0.64,2.49-1.69,4.87-3.11,7.02c-1.48,2.12-3.46,3.86-5.76,5.06c-2.76,1.34-5.8,1.98-8.86,1.84c-5.28,0.56-10.5-1.46-14.04-5.4
		c-3.29-4.66-4.92-10.3-4.6-16v-50.65h11.51v49.6c-0.29,3.26,0.35,6.53,1.84,9.44c1.14,1.77,3.08,2.83,5.18,2.88
		c2.32,0.14,4.5-1.12,5.53-3.22c1.29-2.84,1.89-5.96,1.73-9.1V151.6H237.81z M165.98,212.02h5.53c1.54,0.06,3.05-0.43,4.26-1.38
		c1.22-1.16,2.09-2.63,2.53-4.25c0.69-2.52,1.11-5.1,1.27-7.71v-20.95c-0.1-2.62-0.41-5.24-0.92-7.82
		c-0.32-1.98-1.15-3.85-2.42-5.42c-1.11-1.39-2.83-2.15-4.6-2.06h-5.87L165.98,212.02z M154.47,151.6h19.22
		c3.19-0.12,6.35,0.67,9.09,2.3c2.45,1.76,4.33,4.21,5.41,7.03c1.46,3.68,2.35,7.56,2.65,11.5c0.48,4.98,0.71,9.97,0.69,14.96v6.45
		c0.17,2.57,0.17,5.14,0,7.7c-0.23,2.69-0.69,5.35-1.38,7.95c-0.64,2.48-1.65,4.85-2.99,7.02c-1.4,2.05-3.25,3.74-5.41,4.95
		c-2.45,1.4-5.24,2.08-8.06,1.96h-19.22V151.6z M125.69,165.41l-5.41,30.27h11.51L125.69,165.41z M103.59,222.96l15.19-71.36h15.19
		l14.85,71.36h-11.51l-3.57-15.76H118.1l-2.99,15.76H103.59z M44.2,222.96V151.6h18.42l8.63,48.57l9.32-48.57h17.84v71.36H86.9
		v-55.02l-10.59,55.02H64.8l-10.13-55.02v55.02H44.2z M85.41,369.26l116.03-31.19l66.07,155.27l0.58-0.23l-19.91-167.59
		l115.91-31.08l72.4,271.18l-70.79,18.89l-51.68-193.84l-0.58,0.22l21.98,201.78l-76.54,20.49l-81.49-185.78l-0.58,0.12
		l51.57,193.95l-70.56,18.88L85.41,369.26z M407.36,70.91h8.4v19.57h12.89v11.51h-12.89v19.57h-8.4v-20.14h-12.89V89.9h12.89V70.91z
		 M389.74,71.61l-12.89,55.94h-11.51l14.5-58.48h-18.42V58.36h28.32V71.61z M329.08,69.07c1.97-1.37,3.82-2.91,5.53-4.6
		c1.81-1.84,3.4-3.89,4.72-6.11h10.13v69.07h-11.51V74.37c-1.37,1.47-2.83,2.85-4.37,4.14l-4.6,3.56L329.08,69.07z M275.45,127.54
		V56.06h29.81v11.5h-18.3v17.04h16.92v11.51h-16.92v20.95h18.99v10.94L275.45,127.54z M244.6,86.9h5.06c1,0.04,1.98-0.29,2.76-0.91
		c0.8-0.7,1.43-1.56,1.84-2.53c0.48-1.1,0.8-2.26,0.92-3.46c0.11-1.18,0.11-2.38,0-3.57c0.33-2.53-0.11-5.09-1.27-7.36
		c-0.93-1.43-2.55-2.27-4.26-2.18h-5.06V86.9z M244.6,127.54h-11.51V56.06h21.06c3.71-0.13,7.23,1.65,9.32,4.72
		c2.56,4.18,3.77,9.04,3.45,13.92c0.14,3.96-0.64,7.91-2.3,11.52c-1.47,3.15-4.39,5.39-7.83,5.98v-0.11l2.65,0.57
		c1.2,0.31,2.31,0.89,3.22,1.73c1.29,1.13,2.27,2.55,2.88,4.15c0.88,2.44,1.27,5.02,1.15,7.6v17.16c0.01,1.3,0.25,2.58,0.69,3.79
		h-11.51c-0.72-2.19-1.11-4.48-1.15-6.79v-12.67c0.03-1.67-0.2-3.34-0.69-4.94c-0.39-1.39-1.24-2.61-2.42-3.46
		c-1.47-0.95-3.21-1.39-4.95-1.26h-2.99L244.6,127.54z M224.11,56.06v50.64c-0.02,2.72-0.33,5.42-0.92,8.07
		c-0.65,2.5-1.74,4.88-3.22,7.02c-1.48,2.08-3.41,3.82-5.64,5.06c-2.72,1.33-5.72,1.96-8.75,1.84c-5.36,0.44-10.59-1.75-14.04-5.87
		c-3.3-4.7-4.92-10.38-4.6-16.11V56.06h11.51v49.73c-0.26,3.26,0.42,6.54,1.96,9.43c1.13,1.84,3.14,2.96,5.29,2.96
		c2.16,0,4.16-1.12,5.29-2.96c1.29-2.84,1.89-5.96,1.73-9.1V56.06H224.11z M181.87,56.06v11.5h-12.78v59.63h-11.51V67.92h-12.66
		V56.41L181.87,56.06z M125.69,69.99l-5.18,30.97h11.51L125.69,69.99z M103.59,127.54l14.96-71.48h15.08l14.85,71.48H136.4
		l-2.99-15.88h-15.65l-2.65,15.88H103.59z M44.2,127.54V56.06h18.42l8.63,48.57l9.32-48.57H98.3v71.48H86.79V72.4l-10.47,55.14
		H65.49L55.48,72.4v55.14H44.2z"/>
</g>
</svg>
